<?xml version="1.0" encoding="iso-8859-1"?>
<!-- Uploaded to: SVG Repo, www.svgrepo.com, Generator: SVG Repo Mixer Tools -->
<svg fill="#000000" height="800px" width="800px" version="1.1" id="Layer_1" xmlns="http://www.w3.org/2000/svg" xmlns:xlink="http://www.w3.org/1999/xlink" 
	 viewBox="0 0 512 512" xml:space="preserve">
<g>
	<g>
		<path d="M392.664,255.999L502.97,145.692c5.819-5.818,9.023-13.554,9.023-21.781c0-8.228-3.204-15.964-9.022-21.781L409.863,9.022
			C404.046,3.204,396.31,0,388.082,0s-15.964,3.204-21.781,9.023L255.994,119.33l-59.544-59.545c-3.309-3.309-8.674-3.31-11.984,0
			c-3.309,3.308-3.309,8.674,0,11.983l65.536,65.537c1.591,1.59,3.744,2.482,5.993,2.482s4.403-0.893,5.993-2.482L378.285,21.006
			c2.617-2.618,6.097-4.058,9.797-4.058c3.703,0,7.181,1.441,9.799,4.058l93.108,93.108c2.618,2.618,4.058,6.097,4.058,9.798
			s-1.442,7.181-4.06,9.798L374.689,250.009c-3.309,3.308-3.309,8.674,0,11.983l116.299,116.3c2.618,2.618,4.058,6.097,4.058,9.798
			c0,3.701-1.442,7.181-4.06,9.798l-93.105,93.107c-5.404,5.404-14.195,5.402-19.597,0l-43.846-43.846
			c-3.31-3.31-8.675-3.308-11.984,0c-3.309,3.308-3.309,8.674,0,11.983l43.847,43.846c6.004,6.005,13.894,9.008,21.781,9.008
			c7.889,0,15.777-3.003,21.782-9.009l93.105-93.107c5.819-5.819,9.023-13.555,9.023-21.782c0-8.228-3.204-15.964-9.022-21.781
			L392.664,255.999z"/>
	</g>
</g>
<g>
	<g>
		<path d="M310.473,423.181l-48.485-48.485c-1.591-1.59-3.744-2.482-5.993-2.482s-4.403,0.893-5.993,2.482L133.704,490.995
			c-2.619,2.618-6.098,4.058-9.799,4.058c-3.7,0-7.181-1.442-9.797-4.058L21,397.887c-5.403-5.403-5.403-14.193,0-19.596
			L137.3,261.99c1.589-1.589,2.481-3.744,2.481-5.992c0-2.247-0.893-4.403-2.481-5.992L21,133.708
			c-5.402-5.403-5.402-14.193,0-19.596l93.105-93.107c2.619-2.618,6.098-4.058,9.799-4.058c3.7,0,7.181,1.442,9.797,4.058
			l26.794,26.794c3.309,3.309,8.674,3.309,11.984,0c3.309-3.308,3.309-8.674,0-11.983L145.686,9.022
			C139.869,3.204,132.132,0,123.905,0c-8.228,0-15.964,3.204-21.782,9.022L9.015,102.128c-12.009,12.011-12.009,31.553,0,43.564
			l110.308,110.307L9.015,366.307c-12.01,12.011-12.01,31.553,0,43.564l93.109,93.108c5.818,5.818,13.554,9.022,21.781,9.022
			c8.228,0,15.964-3.204,21.785-9.022l110.306-110.307l42.493,42.494c3.309,3.309,8.674,3.309,11.984,0
			C313.782,431.856,313.782,426.491,310.473,423.181z"/>
	</g>
</g>
</svg>